# xmcd
#
# Track frame offsets:
#	150
#	15575
#	28395
#	44970
#	58090
#	73230
#	87805
#	97705
#	109635
#	121855
#	137245
#	150500
#	161315
#	175700
#	186990
#	200855
#	214680
#	224650
#	234310
#	245545
#	256490
#	266745
#	276345
#	287645
#
# Disc length: 3990 seconds
#
# Revision: 1
# Processed by: cddbd v1.5.1PL0 Copyright (c) Steve Scherf et al.
# Submitted via: audiograbber 1.83.01
#
DISCID=6d0f9418
DTITLE=George Jones - By Request
DYEAR=1900
DGENRE=Country
TTITLE0=Shine On
TTITLE1=Still Doin' Time
TTITLE2=C.C.Waterback
TTITLE3=Same Ole Me
TTITLE4=I Always Get Lucky With You
TTITLE5=Yesterdays Wine
TTITLE6=We Didn't See A Thing
TTITLE7=Mem'Oryville
TTITLE8=I Should've Called
TTITLE9=The Shows Almost Over
TTITLE10=Ol'George Stopped Drinkin' Today
TTITLE11=I'm Ragged But I'm Right
TTITLE12=Courtin' In The Rain
TTITLE13=Loveshine
TTITLE14=You Lying Blue Eyes
TTITLE15=You Lying Blue Eyes
TTITLE16=I'm A People
TTITLE17=Don't Think I Don't Love You
TTITLE18=Ship Of Love
TTITLE19=Once A Day
TTITLE20=If You Believe
TTITLE21=Blindfold Of Love
TTITLE22=Four-O-Thirty Three
TTITLE23=Old Brush Arbors
EXTD=
EXTT0=
EXTT1=
EXTT2=
EXTT3=
EXTT4=
EXTT5=
EXTT6=
EXTT7=
EXTT8=
EXTT9=
EXTT10=
EXTT11=
EXTT12=
EXTT13=
EXTT14=
EXTT15=
EXTT16=
EXTT17=
EXTT18=
EXTT19=
EXTT20=
EXTT21=
EXTT22=
EXTT23=
PLAYORDER=
